<svg width="44" height="44" viewBox="0 0 44 44" fill="none" xmlns="http://www.w3.org/2000/svg">
<circle cx="22" cy="22" r="22" fill="#EDCEFC"/>
<path d="M11.651 15.0134C11.3842 15.0134 11.1404 15.1256 10.9645 15.3047C10.7879 15.4839 10.678 15.7324 10.678 16.004V29.5049C10.678 29.7765 10.7879 30.0251 10.9638 30.2049C11.1404 30.3834 11.3842 30.4955 11.651 30.4955H20.688C20.9558 30.4955 21.1996 30.3844 21.3759 30.2053C21.5518 30.0258 21.661 29.7776 21.661 29.5049H22.339C22.339 29.7776 22.4482 30.0258 22.6241 30.2053C22.8004 30.3844 23.0442 30.4955 23.312 30.4955H32.349C32.6168 30.4955 32.8606 30.3844 33.0369 30.2053C33.2128 30.0258 33.322 29.7776 33.322 29.5049V16.004C33.322 15.7313 33.2128 15.4832 33.0369 15.3037C32.8606 15.1245 32.6168 15.0134 32.349 15.0134V14.323C32.8023 14.323 33.2149 14.5122 33.5142 14.8163C33.8142 15.1225 34 15.5425 34 16.004V29.5049C34 29.9664 33.8142 30.3865 33.5156 30.6913C33.2148 30.9967 32.8023 31.1859 32.349 31.1859H23.312C22.8587 31.1859 22.4461 30.9967 22.1468 30.6926C22.0936 30.6381 22.0448 30.5815 22 30.5218C21.9553 30.5815 21.9064 30.6381 21.8546 30.6913C21.5539 30.9967 21.1413 31.1859 20.688 31.1859H11.651C11.1967 31.1859 10.7838 30.9964 10.4851 30.6923C10.1861 30.3861 10 29.9654 10 29.5049V16.004C10 15.5436 10.1861 15.1228 10.4851 14.818C10.7838 14.5125 11.1967 14.323 11.651 14.323V15.0134ZM13.5274 14.9771C14.7001 14.5412 15.9303 14.323 17.1582 14.323C18.3868 14.323 19.6164 14.5412 20.7894 14.9771L20.5589 15.6247C19.4625 15.2174 18.3109 15.0134 17.1582 15.0134C16.0059 15.0134 14.854 15.2174 13.7579 15.6247L13.5274 14.9771ZM13.5274 25.1087C14.7001 24.6728 15.9303 24.4546 17.1582 24.4546C18.3868 24.4546 19.6164 24.6728 20.7894 25.1087L20.5589 25.7563C19.4625 25.349 18.3109 25.145 17.1582 25.145C16.0059 25.145 14.854 25.349 13.7579 25.7563L13.5274 25.1087ZM13.5274 23.0822C14.7001 22.6463 15.9303 22.4281 17.1582 22.4281C18.3868 22.4281 19.6164 22.6463 20.7894 23.0822L20.5589 23.7298C19.4625 23.3225 18.3109 23.1185 17.1582 23.1185C16.0059 23.1185 14.854 23.3225 13.7579 23.7298L13.5274 23.0822ZM13.5274 21.056C14.7001 20.6201 15.9303 20.4019 17.1582 20.4019C18.3868 20.4019 19.6164 20.6201 20.7894 21.056L20.5589 21.7036C19.4625 21.2963 18.3109 21.0923 17.1582 21.0923C16.0059 21.0923 14.854 21.2963 13.7579 21.7036L13.5274 21.056ZM13.5274 19.0295C14.7001 18.5935 15.9303 18.3754 17.1582 18.3754C18.3868 18.3754 19.6164 18.5935 20.7894 19.0295L20.5589 19.6771C19.4625 19.2697 18.3109 19.0657 17.1582 19.0657C16.0059 19.0657 14.854 19.2697 13.7579 19.6771L13.5274 19.0295ZM13.5274 17.0033C14.7001 16.5674 15.9303 16.3492 17.1582 16.3492C18.3868 16.3492 19.6164 16.5674 20.7894 17.0033L20.5589 17.6509C19.4625 17.2436 18.3109 17.0396 17.1582 17.0396C16.0059 17.0396 14.854 17.2436 13.7579 17.6509L13.5274 17.0033ZM23.2106 14.9771C24.3836 14.5412 25.6132 14.323 26.8418 14.323C28.0697 14.323 29.2999 14.5412 30.4726 14.9771L30.2421 15.6247C29.146 15.2174 27.9941 15.0134 26.8418 15.0134C25.6891 15.0134 24.5375 15.2174 23.4411 15.6247L23.2106 14.9771ZM23.2106 25.1087C24.3836 24.6728 25.6132 24.4546 26.8418 24.4546C28.0697 24.4546 29.2999 24.6728 30.4726 25.1087L30.2421 25.7563C29.146 25.349 27.9941 25.145 26.8418 25.145C25.6891 25.145 24.5375 25.349 23.4411 25.7563L23.2106 25.1087ZM23.2106 23.0822C24.3836 22.6463 25.6132 22.4281 26.8418 22.4281C28.0697 22.4281 29.2999 22.6463 30.4726 23.0822L30.2421 23.7298C29.146 23.3225 27.9941 23.1185 26.8418 23.1185C25.6891 23.1185 24.5375 23.3225 23.4411 23.7298L23.2106 23.0822ZM23.2106 21.056C24.3836 20.6201 25.6132 20.4019 26.8418 20.4019C28.0697 20.4019 29.2999 20.6201 30.4726 21.056L30.2421 21.7036C29.146 21.2963 27.9941 21.0923 26.8418 21.0923C25.6891 21.0923 24.5375 21.2963 23.4411 21.7036L23.2106 21.056ZM23.2106 19.0295C24.3836 18.5935 25.6132 18.3754 26.8418 18.3754C28.0697 18.3754 29.2999 18.5935 30.4726 19.0295L30.2421 19.6771C29.146 19.2697 27.9941 19.0657 26.8418 19.0657C25.6891 19.0657 24.5375 19.2697 23.4411 19.6771L23.2106 19.0295ZM23.2106 17.0033C24.3836 16.5674 25.6132 16.3492 26.8418 16.3492C28.0697 16.3492 29.2999 16.5674 30.4726 17.0033L30.2421 17.6509C29.146 17.2436 27.9941 17.0396 26.8418 17.0396C25.6891 17.0396 24.5375 17.2436 23.4411 17.6509L23.2106 17.0033ZM22.339 13.7897V28.2302C23.7656 27.5481 25.3043 27.2064 26.8414 27.2064C28.3785 27.2064 29.9173 27.5481 31.3438 28.2305V13.7897C29.9312 13.0569 28.3866 12.6904 26.8414 12.6904C25.2962 12.6904 23.7517 13.0569 22.339 13.7897ZM21.661 28.2302V13.7897C20.2483 13.0569 18.7038 12.6904 17.1586 12.6904C15.6134 12.6904 14.0688 13.0569 12.6562 13.7897V28.2305C14.0827 27.5481 15.6215 27.2064 17.1586 27.2064C18.6957 27.2064 20.2344 27.5481 21.661 28.2302ZM32.0219 13.5819V29.363L31.5239 29.0917C30.0627 28.2954 28.4524 27.8967 26.8414 27.8967C25.2304 27.8967 23.6201 28.2954 22.159 29.0917L22 29.1784L21.841 29.0917C20.3799 28.2954 18.7696 27.8967 17.1586 27.8967C15.5476 27.8967 13.9373 28.2954 12.4761 29.0917L11.9781 29.363V13.3769L12.1581 13.2785C13.7213 12.4263 15.4408 12 17.1586 12C18.8184 12 20.4795 12.398 22 13.1936C23.5205 12.398 25.1816 12 26.8414 12C28.5592 12 30.2787 12.4263 31.8419 13.2785L32.0219 13.3769V13.5819Z" fill="#969191"/>
</svg>
