<svg width="45" height="44" viewBox="0 0 45 44" fill="none" xmlns="http://www.w3.org/2000/svg">
<circle cx="22.3501" cy="22" r="22" fill="white"/>
<path d="M16.9499 12.8205C16.9499 14.1568 15.8665 15.2401 14.5302 15.2401C13.1939 15.2401 12.1106 14.1568 12.1106 12.8205C12.1106 11.4842 13.1939 10.4009 14.5302 10.4009C15.8665 10.4009 16.9499 11.4842 16.9499 12.8205Z" stroke="#5A2296"/>
<path d="M10.0427 21.8429L10.0428 21.8429L10.0402 21.8351C9.74723 20.9746 9.81211 20.0241 10.1037 19.2998C10.4059 18.5488 10.8699 18.2002 11.2769 18.2002H17.7418C18.1488 18.2002 18.6127 18.5488 18.915 19.2998C19.2066 20.0241 19.2714 20.9746 18.9785 21.8351L18.9785 21.8351L18.9759 21.8429L15.3476 33.1034C15.3475 33.1036 15.3474 33.1037 15.3474 33.1039C15.1459 33.7246 14.7711 33.9151 14.5093 33.9151C14.2476 33.9151 13.8728 33.7246 13.6713 33.1039C13.6712 33.1037 13.6712 33.1036 13.6711 33.1034L10.0427 21.8429Z" stroke="#5A2296"/>
<path d="M30.6487 11.889C31.1601 13.1236 30.5738 14.539 29.3392 15.0505C28.1045 15.5619 26.6891 14.9756 26.1777 13.741C25.6663 12.5063 26.2526 11.0909 27.4872 10.5795C28.7218 10.0681 30.1373 10.6543 30.6487 11.889Z" stroke="#5A2296"/>
<path d="M33.6618 30.6716L33.6617 30.6716L33.6646 30.6795C33.9502 31.447 33.887 32.2922 33.6028 32.9361C33.3122 33.5946 32.8565 33.9257 32.4232 33.9257H24.3316C23.9015 33.9257 23.4555 33.5986 23.1688 32.9387C22.8887 32.2941 22.8242 31.4455 23.0924 30.6735L27.4704 18.7487L27.4796 18.7236L27.4861 18.6976C27.6077 18.211 27.98 17.9502 28.294 17.9502H28.586C28.9316 17.9502 29.2797 18.2017 29.4434 18.7255L29.4461 18.7342L29.4492 18.7428L33.6618 30.6716Z" stroke="#5A2296"/>
</svg>
